<mxfile host="app.diagrams.net" modified="2023-12-20T16:34:27.203Z" agent="Mozilla/5.0 (Windows NT 10.0; Win64; x64) AppleWebKit/537.36 (KHTML, like Gecko) Chrome/120.0.0.0 Safari/537.36" etag="gWvsG8G8Y4Of3kD6e-xC" version="22.1.11" type="device">
  <diagram name="Page-1" id="6JWECMsm2gpY-R7SUFQm">
    <mxGraphModel dx="2074" dy="1150" grid="1" gridSize="10" guides="1" tooltips="1" connect="1" arrows="1" fold="1" page="1" pageScale="1" pageWidth="850" pageHeight="1100" math="0" shadow="0">
      <root>
        <mxCell id="0" />
        <mxCell id="1" parent="0" />
        <mxCell id="6mbvFhhKIxdu4Y5T3T8f-79" style="edgeStyle=orthogonalEdgeStyle;rounded=0;orthogonalLoop=1;jettySize=auto;html=1;endArrow=none;endFill=0;dashed=1;" edge="1" parent="1" source="6mbvFhhKIxdu4Y5T3T8f-1" target="6mbvFhhKIxdu4Y5T3T8f-43">
          <mxGeometry relative="1" as="geometry" />
        </mxCell>
        <mxCell id="6mbvFhhKIxdu4Y5T3T8f-1" value="Input Data" style="shape=table;startSize=30;container=1;collapsible=1;childLayout=tableLayout;fixedRows=1;rowLines=0;fontStyle=1;align=center;resizeLast=1;html=1;" vertex="1" parent="1">
          <mxGeometry x="80" y="100" width="260" height="420" as="geometry" />
        </mxCell>
        <mxCell id="6mbvFhhKIxdu4Y5T3T8f-2" value="" style="shape=tableRow;horizontal=0;startSize=0;swimlaneHead=0;swimlaneBody=0;fillColor=none;collapsible=0;dropTarget=0;points=[[0,0.5],[1,0.5]];portConstraint=eastwest;top=0;left=0;right=0;bottom=1;" vertex="1" parent="6mbvFhhKIxdu4Y5T3T8f-1">
          <mxGeometry y="30" width="260" height="30" as="geometry" />
        </mxCell>
        <mxCell id="6mbvFhhKIxdu4Y5T3T8f-3" value="PK" style="shape=partialRectangle;connectable=0;fillColor=none;top=0;left=0;bottom=0;right=0;fontStyle=1;overflow=hidden;whiteSpace=wrap;html=1;" vertex="1" parent="6mbvFhhKIxdu4Y5T3T8f-2">
          <mxGeometry width="30" height="30" as="geometry">
            <mxRectangle width="30" height="30" as="alternateBounds" />
          </mxGeometry>
        </mxCell>
        <mxCell id="6mbvFhhKIxdu4Y5T3T8f-4" value="UUID" style="shape=partialRectangle;connectable=0;fillColor=none;top=0;left=0;bottom=0;right=0;align=left;spacingLeft=6;fontStyle=5;overflow=hidden;whiteSpace=wrap;html=1;" vertex="1" parent="6mbvFhhKIxdu4Y5T3T8f-2">
          <mxGeometry x="30" width="230" height="30" as="geometry">
            <mxRectangle width="230" height="30" as="alternateBounds" />
          </mxGeometry>
        </mxCell>
        <mxCell id="6mbvFhhKIxdu4Y5T3T8f-38" value="" style="shape=tableRow;horizontal=0;startSize=0;swimlaneHead=0;swimlaneBody=0;fillColor=none;collapsible=0;dropTarget=0;points=[[0,0.5],[1,0.5]];portConstraint=eastwest;top=0;left=0;right=0;bottom=0;" vertex="1" parent="6mbvFhhKIxdu4Y5T3T8f-1">
          <mxGeometry y="60" width="260" height="30" as="geometry" />
        </mxCell>
        <mxCell id="6mbvFhhKIxdu4Y5T3T8f-39" value="" style="shape=partialRectangle;connectable=0;fillColor=none;top=0;left=0;bottom=0;right=0;editable=1;overflow=hidden;" vertex="1" parent="6mbvFhhKIxdu4Y5T3T8f-38">
          <mxGeometry width="30" height="30" as="geometry">
            <mxRectangle width="30" height="30" as="alternateBounds" />
          </mxGeometry>
        </mxCell>
        <mxCell id="6mbvFhhKIxdu4Y5T3T8f-40" value="DateTime" style="shape=partialRectangle;connectable=0;fillColor=none;top=0;left=0;bottom=0;right=0;align=left;spacingLeft=6;overflow=hidden;" vertex="1" parent="6mbvFhhKIxdu4Y5T3T8f-38">
          <mxGeometry x="30" width="230" height="30" as="geometry">
            <mxRectangle width="230" height="30" as="alternateBounds" />
          </mxGeometry>
        </mxCell>
        <mxCell id="6mbvFhhKIxdu4Y5T3T8f-5" value="" style="shape=tableRow;horizontal=0;startSize=0;swimlaneHead=0;swimlaneBody=0;fillColor=none;collapsible=0;dropTarget=0;points=[[0,0.5],[1,0.5]];portConstraint=eastwest;top=0;left=0;right=0;bottom=0;" vertex="1" parent="6mbvFhhKIxdu4Y5T3T8f-1">
          <mxGeometry y="90" width="260" height="30" as="geometry" />
        </mxCell>
        <mxCell id="6mbvFhhKIxdu4Y5T3T8f-6" value="" style="shape=partialRectangle;connectable=0;fillColor=none;top=0;left=0;bottom=0;right=0;editable=1;overflow=hidden;whiteSpace=wrap;html=1;" vertex="1" parent="6mbvFhhKIxdu4Y5T3T8f-5">
          <mxGeometry width="30" height="30" as="geometry">
            <mxRectangle width="30" height="30" as="alternateBounds" />
          </mxGeometry>
        </mxCell>
        <mxCell id="6mbvFhhKIxdu4Y5T3T8f-7" value="Close Price" style="shape=partialRectangle;connectable=0;fillColor=none;top=0;left=0;bottom=0;right=0;align=left;spacingLeft=6;overflow=hidden;whiteSpace=wrap;html=1;" vertex="1" parent="6mbvFhhKIxdu4Y5T3T8f-5">
          <mxGeometry x="30" width="230" height="30" as="geometry">
            <mxRectangle width="230" height="30" as="alternateBounds" />
          </mxGeometry>
        </mxCell>
        <mxCell id="6mbvFhhKIxdu4Y5T3T8f-8" value="" style="shape=tableRow;horizontal=0;startSize=0;swimlaneHead=0;swimlaneBody=0;fillColor=none;collapsible=0;dropTarget=0;points=[[0,0.5],[1,0.5]];portConstraint=eastwest;top=0;left=0;right=0;bottom=0;" vertex="1" parent="6mbvFhhKIxdu4Y5T3T8f-1">
          <mxGeometry y="120" width="260" height="30" as="geometry" />
        </mxCell>
        <mxCell id="6mbvFhhKIxdu4Y5T3T8f-9" value="" style="shape=partialRectangle;connectable=0;fillColor=none;top=0;left=0;bottom=0;right=0;editable=1;overflow=hidden;whiteSpace=wrap;html=1;" vertex="1" parent="6mbvFhhKIxdu4Y5T3T8f-8">
          <mxGeometry width="30" height="30" as="geometry">
            <mxRectangle width="30" height="30" as="alternateBounds" />
          </mxGeometry>
        </mxCell>
        <mxCell id="6mbvFhhKIxdu4Y5T3T8f-10" value="Open Price" style="shape=partialRectangle;connectable=0;fillColor=none;top=0;left=0;bottom=0;right=0;align=left;spacingLeft=6;overflow=hidden;whiteSpace=wrap;html=1;" vertex="1" parent="6mbvFhhKIxdu4Y5T3T8f-8">
          <mxGeometry x="30" width="230" height="30" as="geometry">
            <mxRectangle width="230" height="30" as="alternateBounds" />
          </mxGeometry>
        </mxCell>
        <mxCell id="6mbvFhhKIxdu4Y5T3T8f-59" value="" style="shape=tableRow;horizontal=0;startSize=0;swimlaneHead=0;swimlaneBody=0;fillColor=none;collapsible=0;dropTarget=0;points=[[0,0.5],[1,0.5]];portConstraint=eastwest;top=0;left=0;right=0;bottom=0;" vertex="1" parent="6mbvFhhKIxdu4Y5T3T8f-1">
          <mxGeometry y="150" width="260" height="30" as="geometry" />
        </mxCell>
        <mxCell id="6mbvFhhKIxdu4Y5T3T8f-60" value="" style="shape=partialRectangle;connectable=0;fillColor=none;top=0;left=0;bottom=0;right=0;editable=1;overflow=hidden;" vertex="1" parent="6mbvFhhKIxdu4Y5T3T8f-59">
          <mxGeometry width="30" height="30" as="geometry">
            <mxRectangle width="30" height="30" as="alternateBounds" />
          </mxGeometry>
        </mxCell>
        <mxCell id="6mbvFhhKIxdu4Y5T3T8f-61" value="Daily High" style="shape=partialRectangle;connectable=0;fillColor=none;top=0;left=0;bottom=0;right=0;align=left;spacingLeft=6;overflow=hidden;" vertex="1" parent="6mbvFhhKIxdu4Y5T3T8f-59">
          <mxGeometry x="30" width="230" height="30" as="geometry">
            <mxRectangle width="230" height="30" as="alternateBounds" />
          </mxGeometry>
        </mxCell>
        <mxCell id="6mbvFhhKIxdu4Y5T3T8f-62" value="" style="shape=tableRow;horizontal=0;startSize=0;swimlaneHead=0;swimlaneBody=0;fillColor=none;collapsible=0;dropTarget=0;points=[[0,0.5],[1,0.5]];portConstraint=eastwest;top=0;left=0;right=0;bottom=0;" vertex="1" parent="6mbvFhhKIxdu4Y5T3T8f-1">
          <mxGeometry y="180" width="260" height="30" as="geometry" />
        </mxCell>
        <mxCell id="6mbvFhhKIxdu4Y5T3T8f-63" value="" style="shape=partialRectangle;connectable=0;fillColor=none;top=0;left=0;bottom=0;right=0;editable=1;overflow=hidden;" vertex="1" parent="6mbvFhhKIxdu4Y5T3T8f-62">
          <mxGeometry width="30" height="30" as="geometry">
            <mxRectangle width="30" height="30" as="alternateBounds" />
          </mxGeometry>
        </mxCell>
        <mxCell id="6mbvFhhKIxdu4Y5T3T8f-64" value="Daily Low" style="shape=partialRectangle;connectable=0;fillColor=none;top=0;left=0;bottom=0;right=0;align=left;spacingLeft=6;overflow=hidden;" vertex="1" parent="6mbvFhhKIxdu4Y5T3T8f-62">
          <mxGeometry x="30" width="230" height="30" as="geometry">
            <mxRectangle width="230" height="30" as="alternateBounds" />
          </mxGeometry>
        </mxCell>
        <mxCell id="6mbvFhhKIxdu4Y5T3T8f-17" value="" style="shape=tableRow;horizontal=0;startSize=0;swimlaneHead=0;swimlaneBody=0;fillColor=none;collapsible=0;dropTarget=0;points=[[0,0.5],[1,0.5]];portConstraint=eastwest;top=0;left=0;right=0;bottom=0;" vertex="1" parent="6mbvFhhKIxdu4Y5T3T8f-1">
          <mxGeometry y="210" width="260" height="30" as="geometry" />
        </mxCell>
        <mxCell id="6mbvFhhKIxdu4Y5T3T8f-18" value="" style="shape=partialRectangle;connectable=0;fillColor=none;top=0;left=0;bottom=0;right=0;editable=1;overflow=hidden;" vertex="1" parent="6mbvFhhKIxdu4Y5T3T8f-17">
          <mxGeometry width="30" height="30" as="geometry">
            <mxRectangle width="30" height="30" as="alternateBounds" />
          </mxGeometry>
        </mxCell>
        <mxCell id="6mbvFhhKIxdu4Y5T3T8f-19" value="Daily Volume" style="shape=partialRectangle;connectable=0;fillColor=none;top=0;left=0;bottom=0;right=0;align=left;spacingLeft=6;overflow=hidden;" vertex="1" parent="6mbvFhhKIxdu4Y5T3T8f-17">
          <mxGeometry x="30" width="230" height="30" as="geometry">
            <mxRectangle width="230" height="30" as="alternateBounds" />
          </mxGeometry>
        </mxCell>
        <mxCell id="6mbvFhhKIxdu4Y5T3T8f-20" value="" style="shape=tableRow;horizontal=0;startSize=0;swimlaneHead=0;swimlaneBody=0;fillColor=none;collapsible=0;dropTarget=0;points=[[0,0.5],[1,0.5]];portConstraint=eastwest;top=0;left=0;right=0;bottom=0;" vertex="1" parent="6mbvFhhKIxdu4Y5T3T8f-1">
          <mxGeometry y="240" width="260" height="30" as="geometry" />
        </mxCell>
        <mxCell id="6mbvFhhKIxdu4Y5T3T8f-21" value="" style="shape=partialRectangle;connectable=0;fillColor=none;top=0;left=0;bottom=0;right=0;editable=1;overflow=hidden;" vertex="1" parent="6mbvFhhKIxdu4Y5T3T8f-20">
          <mxGeometry width="30" height="30" as="geometry">
            <mxRectangle width="30" height="30" as="alternateBounds" />
          </mxGeometry>
        </mxCell>
        <mxCell id="6mbvFhhKIxdu4Y5T3T8f-22" value="SMA (Simple Moving Average)" style="shape=partialRectangle;connectable=0;fillColor=none;top=0;left=0;bottom=0;right=0;align=left;spacingLeft=6;overflow=hidden;" vertex="1" parent="6mbvFhhKIxdu4Y5T3T8f-20">
          <mxGeometry x="30" width="230" height="30" as="geometry">
            <mxRectangle width="230" height="30" as="alternateBounds" />
          </mxGeometry>
        </mxCell>
        <mxCell id="6mbvFhhKIxdu4Y5T3T8f-29" value="" style="shape=tableRow;horizontal=0;startSize=0;swimlaneHead=0;swimlaneBody=0;fillColor=none;collapsible=0;dropTarget=0;points=[[0,0.5],[1,0.5]];portConstraint=eastwest;top=0;left=0;right=0;bottom=0;" vertex="1" parent="6mbvFhhKIxdu4Y5T3T8f-1">
          <mxGeometry y="270" width="260" height="30" as="geometry" />
        </mxCell>
        <mxCell id="6mbvFhhKIxdu4Y5T3T8f-30" value="" style="shape=partialRectangle;connectable=0;fillColor=none;top=0;left=0;bottom=0;right=0;editable=1;overflow=hidden;" vertex="1" parent="6mbvFhhKIxdu4Y5T3T8f-29">
          <mxGeometry width="30" height="30" as="geometry">
            <mxRectangle width="30" height="30" as="alternateBounds" />
          </mxGeometry>
        </mxCell>
        <mxCell id="6mbvFhhKIxdu4Y5T3T8f-31" value="EMA (Exponential Moving Average)" style="shape=partialRectangle;connectable=0;fillColor=none;top=0;left=0;bottom=0;right=0;align=left;spacingLeft=6;overflow=hidden;" vertex="1" parent="6mbvFhhKIxdu4Y5T3T8f-29">
          <mxGeometry x="30" width="230" height="30" as="geometry">
            <mxRectangle width="230" height="30" as="alternateBounds" />
          </mxGeometry>
        </mxCell>
        <mxCell id="6mbvFhhKIxdu4Y5T3T8f-35" value="" style="shape=tableRow;horizontal=0;startSize=0;swimlaneHead=0;swimlaneBody=0;fillColor=none;collapsible=0;dropTarget=0;points=[[0,0.5],[1,0.5]];portConstraint=eastwest;top=0;left=0;right=0;bottom=0;" vertex="1" parent="6mbvFhhKIxdu4Y5T3T8f-1">
          <mxGeometry y="300" width="260" height="30" as="geometry" />
        </mxCell>
        <mxCell id="6mbvFhhKIxdu4Y5T3T8f-36" value="" style="shape=partialRectangle;connectable=0;fillColor=none;top=0;left=0;bottom=0;right=0;editable=1;overflow=hidden;" vertex="1" parent="6mbvFhhKIxdu4Y5T3T8f-35">
          <mxGeometry width="30" height="30" as="geometry">
            <mxRectangle width="30" height="30" as="alternateBounds" />
          </mxGeometry>
        </mxCell>
        <mxCell id="6mbvFhhKIxdu4Y5T3T8f-37" value="MACD (Moving Average&#xa;Convergence DIvergence)" style="shape=partialRectangle;connectable=0;fillColor=none;top=0;left=0;bottom=0;right=0;align=left;spacingLeft=6;overflow=hidden;" vertex="1" parent="6mbvFhhKIxdu4Y5T3T8f-35">
          <mxGeometry x="30" width="230" height="30" as="geometry">
            <mxRectangle width="230" height="30" as="alternateBounds" />
          </mxGeometry>
        </mxCell>
        <mxCell id="6mbvFhhKIxdu4Y5T3T8f-11" value="" style="shape=tableRow;horizontal=0;startSize=0;swimlaneHead=0;swimlaneBody=0;fillColor=none;collapsible=0;dropTarget=0;points=[[0,0.5],[1,0.5]];portConstraint=eastwest;top=0;left=0;right=0;bottom=0;" vertex="1" parent="6mbvFhhKIxdu4Y5T3T8f-1">
          <mxGeometry y="330" width="260" height="30" as="geometry" />
        </mxCell>
        <mxCell id="6mbvFhhKIxdu4Y5T3T8f-12" value="" style="shape=partialRectangle;connectable=0;fillColor=none;top=0;left=0;bottom=0;right=0;editable=1;overflow=hidden;whiteSpace=wrap;html=1;" vertex="1" parent="6mbvFhhKIxdu4Y5T3T8f-11">
          <mxGeometry width="30" height="30" as="geometry">
            <mxRectangle width="30" height="30" as="alternateBounds" />
          </mxGeometry>
        </mxCell>
        <mxCell id="6mbvFhhKIxdu4Y5T3T8f-13" value="Futures Quote next month settlement Price" style="shape=partialRectangle;connectable=0;fillColor=none;top=0;left=0;bottom=0;right=0;align=left;spacingLeft=6;overflow=hidden;whiteSpace=wrap;html=1;" vertex="1" parent="6mbvFhhKIxdu4Y5T3T8f-11">
          <mxGeometry x="30" width="230" height="30" as="geometry">
            <mxRectangle width="230" height="30" as="alternateBounds" />
          </mxGeometry>
        </mxCell>
        <mxCell id="6mbvFhhKIxdu4Y5T3T8f-23" value="" style="shape=tableRow;horizontal=0;startSize=0;swimlaneHead=0;swimlaneBody=0;fillColor=none;collapsible=0;dropTarget=0;points=[[0,0.5],[1,0.5]];portConstraint=eastwest;top=0;left=0;right=0;bottom=0;" vertex="1" parent="6mbvFhhKIxdu4Y5T3T8f-1">
          <mxGeometry y="360" width="260" height="30" as="geometry" />
        </mxCell>
        <mxCell id="6mbvFhhKIxdu4Y5T3T8f-24" value="" style="shape=partialRectangle;connectable=0;fillColor=none;top=0;left=0;bottom=0;right=0;editable=1;overflow=hidden;" vertex="1" parent="6mbvFhhKIxdu4Y5T3T8f-23">
          <mxGeometry width="30" height="30" as="geometry">
            <mxRectangle width="30" height="30" as="alternateBounds" />
          </mxGeometry>
        </mxCell>
        <mxCell id="6mbvFhhKIxdu4Y5T3T8f-25" value="Futures Quote 6 months out &#xa;settlement Price" style="shape=partialRectangle;connectable=0;fillColor=none;top=0;left=0;bottom=0;right=0;align=left;spacingLeft=6;overflow=hidden;" vertex="1" parent="6mbvFhhKIxdu4Y5T3T8f-23">
          <mxGeometry x="30" width="230" height="30" as="geometry">
            <mxRectangle width="230" height="30" as="alternateBounds" />
          </mxGeometry>
        </mxCell>
        <mxCell id="6mbvFhhKIxdu4Y5T3T8f-45" value="" style="shape=tableRow;horizontal=0;startSize=0;swimlaneHead=0;swimlaneBody=0;fillColor=none;collapsible=0;dropTarget=0;points=[[0,0.5],[1,0.5]];portConstraint=eastwest;top=0;left=0;right=0;bottom=0;" vertex="1" parent="6mbvFhhKIxdu4Y5T3T8f-1">
          <mxGeometry y="390" width="260" height="30" as="geometry" />
        </mxCell>
        <mxCell id="6mbvFhhKIxdu4Y5T3T8f-46" value="" style="shape=partialRectangle;connectable=0;fillColor=none;top=0;left=0;bottom=0;right=0;editable=1;overflow=hidden;" vertex="1" parent="6mbvFhhKIxdu4Y5T3T8f-45">
          <mxGeometry width="30" height="30" as="geometry">
            <mxRectangle width="30" height="30" as="alternateBounds" />
          </mxGeometry>
        </mxCell>
        <mxCell id="6mbvFhhKIxdu4Y5T3T8f-47" value="Inflation Rate" style="shape=partialRectangle;connectable=0;fillColor=none;top=0;left=0;bottom=0;right=0;align=left;spacingLeft=6;overflow=hidden;" vertex="1" parent="6mbvFhhKIxdu4Y5T3T8f-45">
          <mxGeometry x="30" width="230" height="30" as="geometry">
            <mxRectangle width="230" height="30" as="alternateBounds" />
          </mxGeometry>
        </mxCell>
        <mxCell id="6mbvFhhKIxdu4Y5T3T8f-41" value="Start" style="ellipse;html=1;shape=startState;fillColor=#000000;strokeColor=#ff0000;" vertex="1" parent="1">
          <mxGeometry x="610" y="90" width="30" height="30" as="geometry" />
        </mxCell>
        <mxCell id="6mbvFhhKIxdu4Y5T3T8f-42" value="" style="edgeStyle=orthogonalEdgeStyle;html=1;verticalAlign=bottom;endArrow=open;endSize=8;strokeColor=#ff0000;rounded=0;entryX=0.5;entryY=0;entryDx=0;entryDy=0;" edge="1" source="6mbvFhhKIxdu4Y5T3T8f-41" parent="1" target="6mbvFhhKIxdu4Y5T3T8f-76">
          <mxGeometry relative="1" as="geometry">
            <mxPoint x="505" y="250" as="targetPoint" />
          </mxGeometry>
        </mxCell>
        <mxCell id="6mbvFhhKIxdu4Y5T3T8f-48" style="edgeStyle=orthogonalEdgeStyle;rounded=0;orthogonalLoop=1;jettySize=auto;html=1;endArrow=open;endFill=0;fillColor=#f8cecc;strokeColor=#F20000;" edge="1" parent="1" source="6mbvFhhKIxdu4Y5T3T8f-43" target="6mbvFhhKIxdu4Y5T3T8f-44">
          <mxGeometry relative="1" as="geometry" />
        </mxCell>
        <mxCell id="6mbvFhhKIxdu4Y5T3T8f-43" value="Collect Input Data" style="rounded=1;whiteSpace=wrap;html=1;" vertex="1" parent="1">
          <mxGeometry x="445" y="250" width="120" height="60" as="geometry" />
        </mxCell>
        <mxCell id="6mbvFhhKIxdu4Y5T3T8f-50" style="edgeStyle=orthogonalEdgeStyle;rounded=0;orthogonalLoop=1;jettySize=auto;html=1;endArrow=open;endFill=0;fillColor=#e51400;strokeColor=#ff0000;" edge="1" parent="1" source="6mbvFhhKIxdu4Y5T3T8f-44" target="6mbvFhhKIxdu4Y5T3T8f-49">
          <mxGeometry relative="1" as="geometry" />
        </mxCell>
        <mxCell id="6mbvFhhKIxdu4Y5T3T8f-44" value="Transformation - Inflation Adjustment" style="rounded=1;whiteSpace=wrap;html=1;" vertex="1" parent="1">
          <mxGeometry x="445" y="340" width="120" height="60" as="geometry" />
        </mxCell>
        <mxCell id="6mbvFhhKIxdu4Y5T3T8f-65" style="edgeStyle=orthogonalEdgeStyle;rounded=0;orthogonalLoop=1;jettySize=auto;html=1;endArrow=open;endFill=0;fillColor=#e51400;strokeColor=#ff0000;" edge="1" parent="1" source="6mbvFhhKIxdu4Y5T3T8f-49" target="6mbvFhhKIxdu4Y5T3T8f-58">
          <mxGeometry relative="1" as="geometry" />
        </mxCell>
        <mxCell id="6mbvFhhKIxdu4Y5T3T8f-49" value="LSTM Neural Network" style="rounded=1;whiteSpace=wrap;html=1;" vertex="1" parent="1">
          <mxGeometry x="445" y="420" width="120" height="60" as="geometry" />
        </mxCell>
        <mxCell id="6mbvFhhKIxdu4Y5T3T8f-74" style="edgeStyle=orthogonalEdgeStyle;rounded=0;orthogonalLoop=1;jettySize=auto;html=1;endArrow=open;endFill=0;fillColor=#e51400;strokeColor=#ff0000;" edge="1" parent="1" source="6mbvFhhKIxdu4Y5T3T8f-58" target="6mbvFhhKIxdu4Y5T3T8f-66">
          <mxGeometry relative="1" as="geometry" />
        </mxCell>
        <mxCell id="6mbvFhhKIxdu4Y5T3T8f-58" value="Predict High, Low, Close" style="rounded=1;whiteSpace=wrap;html=1;" vertex="1" parent="1">
          <mxGeometry x="445" y="510" width="120" height="60" as="geometry" />
        </mxCell>
        <mxCell id="6mbvFhhKIxdu4Y5T3T8f-66" value="Price within Limits" style="rhombus;whiteSpace=wrap;html=1;fontColor=#000000;fillColor=#ffffc0;strokeColor=#ff0000;" vertex="1" parent="1">
          <mxGeometry x="450" y="610" width="110" height="80" as="geometry" />
        </mxCell>
        <mxCell id="6mbvFhhKIxdu4Y5T3T8f-67" value="no" style="edgeStyle=orthogonalEdgeStyle;html=1;align=left;verticalAlign=bottom;endArrow=open;endSize=8;strokeColor=#ff0000;rounded=0;entryX=0;entryY=0.5;entryDx=0;entryDy=0;" edge="1" source="6mbvFhhKIxdu4Y5T3T8f-66" parent="1" target="6mbvFhhKIxdu4Y5T3T8f-69">
          <mxGeometry x="-1" relative="1" as="geometry">
            <mxPoint x="620" y="700" as="targetPoint" />
          </mxGeometry>
        </mxCell>
        <mxCell id="6mbvFhhKIxdu4Y5T3T8f-68" value="yes" style="edgeStyle=orthogonalEdgeStyle;html=1;align=left;verticalAlign=top;endArrow=open;endSize=8;strokeColor=#ff0000;rounded=0;" edge="1" source="6mbvFhhKIxdu4Y5T3T8f-66" parent="1" target="6mbvFhhKIxdu4Y5T3T8f-73">
          <mxGeometry x="-1" relative="1" as="geometry">
            <mxPoint x="510" y="740" as="targetPoint" />
          </mxGeometry>
        </mxCell>
        <mxCell id="6mbvFhhKIxdu4Y5T3T8f-69" value="Price Significantly Significantly Above Limits" style="rhombus;whiteSpace=wrap;html=1;fontColor=#000000;fillColor=#ffffc0;strokeColor=#ff0000;" vertex="1" parent="1">
          <mxGeometry x="650" y="610" width="100" height="80" as="geometry" />
        </mxCell>
        <mxCell id="6mbvFhhKIxdu4Y5T3T8f-70" value="no" style="edgeStyle=orthogonalEdgeStyle;html=1;align=left;verticalAlign=bottom;endArrow=open;endSize=8;strokeColor=#ff0000;rounded=0;" edge="1" source="6mbvFhhKIxdu4Y5T3T8f-69" parent="1">
          <mxGeometry x="-1" relative="1" as="geometry">
            <mxPoint x="800" y="650" as="targetPoint" />
          </mxGeometry>
        </mxCell>
        <mxCell id="6mbvFhhKIxdu4Y5T3T8f-71" value="yes" style="edgeStyle=orthogonalEdgeStyle;html=1;align=left;verticalAlign=top;endArrow=open;endSize=8;strokeColor=#ff0000;rounded=0;" edge="1" source="6mbvFhhKIxdu4Y5T3T8f-69" parent="1" target="6mbvFhhKIxdu4Y5T3T8f-75">
          <mxGeometry x="-1" relative="1" as="geometry">
            <mxPoint x="680" y="740" as="targetPoint" />
          </mxGeometry>
        </mxCell>
        <mxCell id="6mbvFhhKIxdu4Y5T3T8f-72" value="" style="ellipse;html=1;shape=endState;fillColor=#000000;strokeColor=#ff0000;" vertex="1" parent="1">
          <mxGeometry x="790" y="635" width="30" height="30" as="geometry" />
        </mxCell>
        <mxCell id="6mbvFhhKIxdu4Y5T3T8f-81" style="edgeStyle=orthogonalEdgeStyle;rounded=0;orthogonalLoop=1;jettySize=auto;html=1;endArrow=open;endFill=0;fillColor=#e51400;strokeColor=#ff0000;" edge="1" parent="1" source="6mbvFhhKIxdu4Y5T3T8f-73" target="6mbvFhhKIxdu4Y5T3T8f-80">
          <mxGeometry relative="1" as="geometry" />
        </mxCell>
        <mxCell id="6mbvFhhKIxdu4Y5T3T8f-73" value="Set up Programmatic Options Trade - Iron Condor" style="rounded=1;whiteSpace=wrap;html=1;" vertex="1" parent="1">
          <mxGeometry x="445" y="730" width="120" height="60" as="geometry" />
        </mxCell>
        <mxCell id="6mbvFhhKIxdu4Y5T3T8f-82" style="edgeStyle=orthogonalEdgeStyle;rounded=0;orthogonalLoop=1;jettySize=auto;html=1;endArrow=open;endFill=0;fillColor=#e51400;strokeColor=#ff0000;" edge="1" parent="1" source="6mbvFhhKIxdu4Y5T3T8f-75" target="6mbvFhhKIxdu4Y5T3T8f-80">
          <mxGeometry relative="1" as="geometry" />
        </mxCell>
        <mxCell id="6mbvFhhKIxdu4Y5T3T8f-75" value="Set up Programmatic Options Trade - Bull Call Ladder" style="rounded=1;whiteSpace=wrap;html=1;" vertex="1" parent="1">
          <mxGeometry x="640" y="730" width="120" height="60" as="geometry" />
        </mxCell>
        <mxCell id="6mbvFhhKIxdu4Y5T3T8f-76" value="Market Open, No currently open trades" style="rhombus;whiteSpace=wrap;html=1;fontColor=#000000;fillColor=#ffffc0;strokeColor=#ff0000;" vertex="1" parent="1">
          <mxGeometry x="440" y="130" width="130" height="90" as="geometry" />
        </mxCell>
        <mxCell id="6mbvFhhKIxdu4Y5T3T8f-78" value="" style="edgeStyle=orthogonalEdgeStyle;html=1;align=left;verticalAlign=top;endArrow=open;endSize=8;strokeColor=#ff0000;rounded=0;" edge="1" source="6mbvFhhKIxdu4Y5T3T8f-76" parent="1" target="6mbvFhhKIxdu4Y5T3T8f-43">
          <mxGeometry x="-1" relative="1" as="geometry">
            <mxPoint x="590" y="200" as="targetPoint" />
          </mxGeometry>
        </mxCell>
        <mxCell id="6mbvFhhKIxdu4Y5T3T8f-87" style="edgeStyle=orthogonalEdgeStyle;rounded=0;orthogonalLoop=1;jettySize=auto;html=1;" edge="1" parent="1" source="6mbvFhhKIxdu4Y5T3T8f-80" target="6mbvFhhKIxdu4Y5T3T8f-83">
          <mxGeometry relative="1" as="geometry" />
        </mxCell>
        <mxCell id="6mbvFhhKIxdu4Y5T3T8f-80" value="Email for approval, await decision" style="rounded=1;whiteSpace=wrap;html=1;" vertex="1" parent="1">
          <mxGeometry x="540" y="840" width="120" height="60" as="geometry" />
        </mxCell>
        <mxCell id="6mbvFhhKIxdu4Y5T3T8f-89" value="no" style="edgeStyle=orthogonalEdgeStyle;rounded=0;orthogonalLoop=1;jettySize=auto;html=1;endArrow=open;endFill=0;fillColor=#e51400;strokeColor=#ff0000;" edge="1" parent="1" source="6mbvFhhKIxdu4Y5T3T8f-83" target="6mbvFhhKIxdu4Y5T3T8f-88">
          <mxGeometry x="-0.6667" y="10" relative="1" as="geometry">
            <mxPoint as="offset" />
          </mxGeometry>
        </mxCell>
        <mxCell id="6mbvFhhKIxdu4Y5T3T8f-83" value="Trade Approved" style="rhombus;whiteSpace=wrap;html=1;fontColor=#000000;fillColor=#ffffc0;strokeColor=#ff0000;" vertex="1" parent="1">
          <mxGeometry x="560" y="930" width="80" height="40" as="geometry" />
        </mxCell>
        <mxCell id="6mbvFhhKIxdu4Y5T3T8f-85" value="yes" style="edgeStyle=orthogonalEdgeStyle;html=1;align=left;verticalAlign=top;endArrow=open;endSize=8;strokeColor=#ff0000;rounded=0;" edge="1" source="6mbvFhhKIxdu4Y5T3T8f-83" parent="1" target="6mbvFhhKIxdu4Y5T3T8f-90">
          <mxGeometry x="-1" relative="1" as="geometry">
            <mxPoint x="600" y="1030" as="targetPoint" />
          </mxGeometry>
        </mxCell>
        <mxCell id="6mbvFhhKIxdu4Y5T3T8f-88" value="" style="ellipse;html=1;shape=endState;fillColor=#000000;strokeColor=#ff0000;" vertex="1" parent="1">
          <mxGeometry x="760" y="935" width="30" height="30" as="geometry" />
        </mxCell>
        <mxCell id="6mbvFhhKIxdu4Y5T3T8f-90" value="Place Trade" style="rounded=1;whiteSpace=wrap;html=1;" vertex="1" parent="1">
          <mxGeometry x="540" y="1010" width="120" height="60" as="geometry" />
        </mxCell>
        <mxCell id="6mbvFhhKIxdu4Y5T3T8f-91" value="&lt;h1&gt;Automated Trading System Architecture&lt;/h1&gt;" style="text;html=1;strokeColor=none;fillColor=none;align=center;verticalAlign=middle;whiteSpace=wrap;rounded=0;" vertex="1" parent="1">
          <mxGeometry x="150" y="30" width="520" height="30" as="geometry" />
        </mxCell>
        <mxCell id="6mbvFhhKIxdu4Y5T3T8f-92" value="&lt;h1&gt;Heading&lt;/h1&gt;&lt;p&gt;Lorem ipsum dolor sit amet, consectetur adipisicing elit, sed do eiusmod tempor incididunt ut labore et dolore magna aliqua.&lt;/p&gt;" style="text;html=1;strokeColor=none;fillColor=none;spacing=5;spacingTop=-20;whiteSpace=wrap;overflow=hidden;rounded=0;" vertex="1" parent="1">
          <mxGeometry x="70" y="600" width="190" height="120" as="geometry" />
        </mxCell>
      </root>
    </mxGraphModel>
  </diagram>
</mxfile>
